<svg width="14" height="14" viewBox="0 0 14 14" fill="none" xmlns="http://www.w3.org/2000/svg">
<path d="M9.6665 3.66667C9.6665 3.48986 9.73674 3.32029 9.86177 3.19526C9.98679 3.07024 10.1564 3 10.3332 3C10.51 3 10.6796 3.07024 10.8046 3.19526C10.9296 3.32029 10.9998 3.48986 10.9998 3.66667C10.9998 3.84348 10.9296 4.01305 10.8046 4.13807C10.6796 4.2631 10.51 4.33333 10.3332 4.33333C10.1564 4.33333 9.98679 4.2631 9.86177 4.13807C9.73674 4.01305 9.6665 3.84348 9.6665 3.66667Z" fill="#636270"/>
<path fill-rule="evenodd" clip-rule="evenodd" d="M6.99992 3.8335C6.16007 3.8335 5.35461 4.16713 4.76075 4.76099C4.16688 5.35486 3.83325 6.16031 3.83325 7.00016C3.83325 7.84001 4.16688 8.64547 4.76075 9.23933C5.35461 9.8332 6.16007 10.1668 6.99992 10.1668C7.83977 10.1668 8.64523 9.8332 9.23909 9.23933C9.83296 8.64547 10.1666 7.84001 10.1666 7.00016C10.1666 6.16031 9.83296 5.35486 9.23909 4.76099C8.64523 4.16713 7.83977 3.8335 6.99992 3.8335ZM4.83325 7.00016C4.83325 6.42553 5.06153 5.87443 5.46785 5.4681C5.87418 5.06177 6.42528 4.8335 6.99992 4.8335C7.57455 4.8335 8.12565 5.06177 8.53198 5.4681C8.93831 5.87443 9.16659 6.42553 9.16659 7.00016C9.16659 7.5748 8.93831 8.1259 8.53198 8.53223C8.12565 8.93856 7.57455 9.16683 6.99992 9.16683C6.42528 9.16683 5.87418 8.93856 5.46785 8.53223C5.06153 8.1259 4.83325 7.5748 4.83325 7.00016Z" fill="#636270"/>
<path fill-rule="evenodd" clip-rule="evenodd" d="M10.5053 0.888771C8.17554 0.630501 5.82438 0.630501 3.49462 0.888771C2.15329 1.03877 1.06996 2.09544 0.912622 3.44344C0.636222 5.80649 0.636222 8.19371 0.912622 10.5568C1.06996 11.9048 2.15262 12.9614 3.49462 13.1114C5.80529 13.3694 8.19462 13.3694 10.5053 13.1114C11.8466 12.9614 12.93 11.9048 13.0873 10.5568C13.3637 8.19372 13.3637 5.80649 13.0873 3.44344C12.93 2.09544 11.8473 1.03877 10.5053 0.888771ZM3.60529 1.8821C5.86149 1.63202 8.13842 1.63202 10.3946 1.8821C11.2813 1.9821 11.9913 2.68144 12.0946 3.5601C12.3619 5.84565 12.3619 8.15456 12.0946 10.4401C11.9913 11.3188 11.2813 12.0188 10.3946 12.1174C8.13842 12.3675 5.86149 12.3675 3.60529 12.1174C2.71862 12.0188 2.00862 11.3188 1.90529 10.4401C1.63799 8.15456 1.63799 5.84565 1.90529 3.5601C2.00862 2.68144 2.71862 1.98144 3.60529 1.88277V1.8821Z" fill="#636270"/>
</svg>
