<svg width="17" height="14" viewBox="0 0 17 14" fill="none" xmlns="http://www.w3.org/2000/svg">
<path d="M5.06654 13.5001C11.1032 13.5001 14.4055 8.49813 14.4055 4.16146C14.4055 4.0208 14.4022 3.87713 14.3959 3.73646C15.0384 3.27179 15.5928 2.69621 16.0332 2.0368C15.4349 2.3028 14.7999 2.4768 14.1492 2.55213C14.834 2.14166 15.3468 1.49681 15.5925 0.737129C14.9482 1.11902 14.2436 1.38843 13.5089 1.5338C13.0139 1.00757 12.3593 0.659106 11.6464 0.542283C10.9334 0.425461 10.2019 0.546794 9.56481 0.887517C8.92776 1.22824 8.42072 1.76937 8.12212 2.42721C7.82351 3.08506 7.74997 3.82296 7.91287 4.5268C6.6082 4.46133 5.33185 4.12242 4.16656 3.53206C3.00127 2.94169 1.97304 2.11303 1.14854 1.0998C0.729508 1.82229 0.601294 2.67723 0.78995 3.49086C0.978606 4.30449 1.46998 5.01576 2.1642 5.48013C1.64297 5.46361 1.13315 5.3233 0.67687 5.0708V5.11146C0.676434 5.86962 0.938552 6.60455 1.41867 7.19131C1.89879 7.77808 2.56729 8.18048 3.31054 8.33013C2.82783 8.46221 2.32121 8.48149 1.82987 8.38646C2.03965 9.03847 2.44774 9.60872 2.9972 10.0176C3.54667 10.4266 4.21008 10.6537 4.89487 10.6675C4.21374 11.2026 3.43369 11.5981 2.59943 11.8313C1.76517 12.0644 0.893102 12.1306 0.0332031 12.0261C1.53511 12.9895 3.28219 13.5012 5.06654 13.5001Z" fill="#636270"/>
</svg>
